<svg xmlns="http://www.w3.org/2000/svg" viewBox="0 0 120 120" role="img" aria-label="Puma head"><defs><filter id="s" x="-20%" y="-20%" width="140%" height="140%"><feDropShadow dx="0" dy="4" stdDeviation="4" flood-color="#000" flood-opacity=".35"/></filter></defs><circle cx="60" cy="60" r="55" fill="#f7fbff"/><path fill="#17215f" d="M18 73c8-29 21-47 40-54 18-7 33-3 45 12-9-2-17-1-25 4 12 3 20 11 24 24-7-5-14-8-22-8 6 7 9 16 8 28-6-8-13-13-22-16-10-3-19-1-27 5-7 5-14 7-21 5Z" filter="url(#s)"/><path fill="#d4213f" d="M31 76c8-10 18-14 29-13 12 1 23 8 34 22-10-2-20-1-30 3-13 5-25 1-33-12Z"/><path fill="#f7fbff" d="M55 47c3-6 9-9 18-9-2 7-7 11-16 13l17 3c-9 6-18 6-27 0 0 0 4-2 8-7Z"/><path fill="#17215f" d="M50 78c8 4 18 5 29 2-8 8-17 11-28 9-8-2-15-6-20-13 6 1 12 2 19 2Z"/><circle cx="82" cy="45" r="4" fill="#d4213f"/><path fill="none" stroke="#17215f" stroke-linecap="round" stroke-width="6" d="M57 65c-5 8-12 13-22 16M72 66c7 4 13 10 18 18"/></svg>
